<svg xmlns="http://www.w3.org/2000/svg" viewBox="0 0 41.38 50.48">
  <path d="M21.45 48.3a2.06 2.06 0 012.05-2.24 1.98 1.98 0 012 2.17 2.03 2.03 0 01-2.06 2.25 1.98 1.98 0 01-2-2.18zm.83-.02c0 .94.48 1.57 1.19 1.57s1.19-.64 1.19-1.6c0-.76-.37-1.57-1.19-1.57-.72 0-1.2.63-1.2 1.6zm12.04.63a1.53 1.53 0 011.52-1.66 1.35 1.35 0 011.34 1.5 1.95 1.95 0 01-.03.33h-2.08c.02.5.38.8.96.8a2.51 2.51 0 00.86-.14l.12.53a2.85 2.85 0 01-1.09.2 1.47 1.47 0 01-1.6-1.55zm.75-.38h1.37a.86.86 0 00-.2-.58.6.6 0 00-.44-.17.77.77 0 00-.73.76zm-3.56.36a1.6 1.6 0 011.73-1.64 2.1 2.1 0 01.76.14l-.14.59a1.3 1.3 0 00-.6-.12 1 1 0 000 2 1.57 1.57 0 00.63-.13l.1.58a2.27 2.27 0 01-.88.16 1.5 1.5 0 01-1.6-1.57zm-16.94 1.52V46.8h-1.22v-.66h3.25v.66h-1.24v3.62zm-3.61 0h-.78V46.2a7 7 0 011.2-.09 1.96 1.96 0 011.26.35 1.2 1.2 0 01.43.95 1.3 1.3 0 01-.37.96 1.9 1.9 0 01-1.36.47 1.83 1.83 0 01-.38-.03v1.62zm0-3.66v1.43a1.35 1.35 0 00.38.04c.6 0 .95-.3.95-.79 0-.46-.32-.72-.88-.72a2.11 2.11 0 00-.45.03zm19.12 3.66v-2.5h-1.06v2.5h-.78v-2.5h-1.15v2.5h-.79v-2.5h-.42v-.59h.42v-.08a1.37 1.37 0 01.39-1.01 1.21 1.21 0 01.87-.31 1.37 1.37 0 01.55.12l-.2.56a.73.73 0 00-.32-.08.44.44 0 00-.34.13.8.8 0 00-.17.57v.1h1.16v-.15a1.32 1.32 0 011.5-1.34 1.96 1.96 0 01.82.18l-.19.6a1.45 1.45 0 00-.63-.15.65.65 0 00-.73.73v.13h1.85v3.09zm-12.98 0v-4.28h2.49v.65h-1.7v1.18h1.58v.63h-1.59v1.82zm-8.48 0l-.09-1.74c-.02-.55-.05-1.22-.05-1.8h-.02c-.14.52-.31 1.1-.5 1.64l-.64 1.85h-.6l-.57-1.83c-.17-.54-.32-1.13-.44-1.66H5.7l-.08 1.82-.1 1.72H4.8l.3-4.28h1.03l.56 1.72c.15.5.28 1.01.4 1.49h.02c.11-.47.26-1 .43-1.5l.59-1.7h1.02l.24 4.27zm23.3-9.14a1.54 1.54 0 011.6-1.63 1.48 1.48 0 011.55 1.58 1.53 1.53 0 01-1.6 1.65 1.5 1.5 0 01-1.56-1.6zm.8-.01c0 .61.32 1.04.78 1.04s.76-.43.76-1.06c0-.51-.24-1.04-.76-1.04-.57 0-.78.57-.78 1.05zm-4.1 1.35a1.21 1.21 0 01-.25-.87V40.3h-.45v-.58h.45v-.58l.77-.22v.8h.74v.58h-.74v1.36c0 .39.1.58.4.58a1.03 1.03 0 00.3-.04l.02.6a1.75 1.75 0 01-.57.08.9.9 0 01-.68-.26zm-3.8-.66c0-.76.64-1.17 1.81-1.17h.03v-.05c0-.2-.08-.54-.63-.54a1.64 1.64 0 00-.84.23l-.15-.51a2.27 2.27 0 011.12-.27 1.16 1.16 0 011.28 1.3v1.12a4 4 0 00.05.74h-.7l-.06-.34h-.02a1.14 1.14 0 01-.92.4.92.92 0 01-.97-.91zm.77-.09a.41.41 0 00.45.45.65.65 0 00.62-.43.5.5 0 00.02-.17v-.42h-.05c-.68 0-1.04.2-1.04.57zm-10.1-.57a1.75 1.75 0 01.46-1.27 1.3 1.3 0 01.93-.38 1 1 0 01.88.4h.01v-1.75h.79v3.64l.02.87h-.7l-.03-.5h-.02a1.11 1.11 0 01-1 .57 1.43 1.43 0 01-1.34-1.58zm.8-.04c0 .6.3.99.78.99a.7.7 0 00.68-.55.87.87 0 00.02-.23v-.47a1.18 1.18 0 00-.02-.2.7.7 0 00-.67-.55c-.48 0-.8.4-.8 1.01zm-5.72 1.36a1.21 1.21 0 01-.25-.87V40.3h-.44v-.58h.44v-.58l.77-.22v.8h.75v.58h-.75v1.36c0 .39.1.58.4.58a1.03 1.03 0 00.3-.04l.02.6a1.74 1.74 0 01-.57.08.9.9 0 01-.67-.26zM.68 40.97v-2.45h.79v2.5c0 .83.35 1.22.88 1.22.57 0 .9-.39.9-1.23v-2.5h.8v2.45c0 1.32-.7 1.9-1.72 1.9-1 0-1.65-.55-1.65-1.89zm38.49 1.68l.16-.58a1.71 1.71 0 00.8.23c.34 0 .5-.14.5-.35s-.14-.3-.52-.45c-.6-.2-.86-.53-.86-.9 0-.54.46-.96 1.18-.96a1.82 1.82 0 01.83.18l-.16.55a1.37 1.37 0 00-.66-.18c-.28 0-.43.14-.43.33s.14.28.54.43c.57.2.82.48.83.94 0 .57-.44.97-1.26.97a2.02 2.02 0 01-.95-.21zM12.2 41.3a1.53 1.53 0 011.52-1.66 1.35 1.35 0 011.34 1.5 2.08 2.08 0 01-.03.33h-2.08c.02.5.37.8.96.8a2.5 2.5 0 00.86-.14l.12.53a2.83 2.83 0 01-1.09.2 1.47 1.47 0 01-1.6-1.56zm.75-.38h1.37a.86.86 0 00-.2-.58.6.6 0 00-.44-.17.77.77 0 00-.73.75zm10.4 1.88l-1.13-1.89a14.72 14.72 0 01-.77-1.47h-.02c.03.56.04 1.12.04 1.83v1.53h-.73v-4.28h.9l1.11 1.83a12.9 12.9 0 01.74 1.44h.01a17.32 17.32 0 01-.07-1.78v-1.5h.73v4.29zm-16.4 0v-1.75c0-.44-.18-.78-.6-.78a.66.66 0 00-.62.46.73.73 0 00-.03.25v1.82h-.8v-2.17c0-.36 0-.66-.02-.93h.69l.03.47h.02a1.14 1.14 0 011-.53c.55 0 1.1.34 1.1 1.32v1.84zm30.8 0v-1.75c0-.44-.17-.78-.6-.78a.66.66 0 00-.62.46.75.75 0 00-.03.25v1.82h-.79v-2.17l-.02-.93h.68l.04.47h.02a1.14 1.14 0 011-.53c.54 0 1.1.34 1.1 1.32v1.84zm-7.27 0v-3.1h.78v3.1zm-21.92 0v-3.1h.79v3.1zm21.87-3.95a.44.44 0 11.44.41.41.41 0 01-.44-.42zm-21.92 0a.44.44 0 11.44.41.41.41 0 01-.44-.42zm6.64-4.9a17.23 17.23 0 014.61-3.29 1.84 1.84 0 00-.58-.1 4.6 4.6 0 00-2.67 1.16c-2.09 1.26-2.77 1.6-4.32 1.6a5.57 5.57 0 01-2.72-.78 5.91 5.91 0 01-1.7-1.3l.05-.05a9.2 9.2 0 001.65.68 4.88 4.88 0 001.26.2c1.12 0 1.85-.3 3.98-1.07a11.5 11.5 0 013.45-.97 11.89 11.89 0 012.43.43 12.95 12.95 0 012.48-.43 11.5 11.5 0 013.44.97c1.02.39 1.75.63 2.33.82a7.53 7.53 0 001.7.24 6.26 6.26 0 002.87-.87v.05a6.08 6.08 0 01-4.37 2.08h-.2c-1.45-.05-2.13-.39-4.12-1.6-1.12-.72-1.7-1.15-2.67-1.15a2.5 2.5 0 00-.64.1 17.39 17.39 0 014.67 3.28l-.83.73a13.12 13.12 0 00-4.66-3.7 13.43 13.43 0 00-4.61 3.7zM9.47 31a6.48 6.48 0 01-5-3.19l.05-.04c1.65 1.54 2.72 1.5 4.95 1.73.1 0 .24.05.34.05a28.2 28.2 0 013.4.44v-.05a5.94 5.94 0 01-2.09-1.02 7.38 7.38 0 01-1.65-2.41c-.1-.24-.39-.72-.68-1.25l.05-.05a6.95 6.95 0 01.63.58c1.12.91 2.24 1.98 3.3 2.94a5.9 5.9 0 002.97 1.3c-3.74.92-4.23 1.06-5.25 1.06A6.24 6.24 0 019.47 31zm19.37-.15c-.58-.14-1.65-.38-3.35-.82a5.88 5.88 0 002.96-1.3c.15-.1.25-.24.4-.34 1.11-1 2.32-2.17 3.54-3.18l.05.05c-1.17 1.93-1.46 2.94-2.33 3.67a4.33 4.33 0 01-1.27.72 8.55 8.55 0 00-.82.3v.04c.39-.05.73-.15.82-.15 1.12-.14 1.6-.19 2.53-.29 2.47-.29 3.59-.14 5.34-1.78l.05.05a6.69 6.69 0 01-6.02 3.28 8.32 8.32 0 01-1.9-.25zm-8.23-1.69h-.07A14.89 14.89 0 019.47 24.1a14.42 14.42 0 01-3.5-9.5 14.46 14.46 0 013.5-9.52 14.88 14.88 0 014.89-3.67A14.68 14.68 0 0120.54 0a.03.03 0 01.01 0h.09a14.88 14.88 0 018.2 2.51 14.57 14.57 0 010 24.14 14.86 14.86 0 01-8.2 2.5zm.37-3.08a.8.8 0 01.04.33V28a.83.83 0 01-.04.34 1.33 1.33 0 01.48-.05 13.14 13.14 0 007.43-2.7 10.99 10.99 0 00.91-.73l.11-.1a1.02 1.02 0 01.3-.18h-.02a1.04 1.04 0 01-.28-.2l-1.07-1.05a.69.69 0 01-.23-.35l-.01-.04a1.08 1.08 0 01-.24.29 9.87 9.87 0 01-2 1.45c-.14.53-.24.62-.38.62a.76.76 0 01-.3.39.5.5 0 01-.34.29.73.73 0 01-.27.2 2.4 2.4 0 00-.16.09l-.06.06a.52.52 0 01-.43.23.7.7 0 01-.63-.3 2.66 2.66 0 00-.49-.43 12.14 12.14 0 01-1.99.3c-.19 0-.29 0-.34-.05zm-8.45-3.2a.8.8 0 01-.15.3l-1.16 1.16c-.1.1-.2.19-.3.19a.6.6 0 01.3.19 13.85 13.85 0 008.54 3.57 1.36 1.36 0 01.48.05.83.83 0 01-.04-.34v-1.59a.83.83 0 01.05-.34c-.05.05-.15.05-.34.05a11.58 11.58 0 01-7.19-3l-.04-.03c-.06-.05-.15-.13-.15-.2zm.29-.47a4.08 4.08 0 01.67.4l.1.08a10.92 10.92 0 006.22 2.5 1.2 1.2 0 01.44.06 1.07 1.07 0 01-.05-.39v-1.5c0-.1 0-.24.05-.29a.73.73 0 01-.34.05 9.6 9.6 0 01-5.3-2.37 4 4 0 00.5.57l.04.06c0 .07.08.14.15.21s.2.17.2.28c0 .16-.15.25-.38.25a.88.88 0 01-.16-.01.73.73 0 01-.44.1 2.15 2.15 0 01-.82.29 1.54 1.54 0 01-.51-.16 2.08 2.08 0 00-.37-.13zm8.2 1.15v1.5a1.07 1.07 0 01-.04.39 1.23 1.23 0 01.43-.05 7.78 7.78 0 001.46-.2c-.5-.14-1.02-.49-1.02-.9a.51.51 0 01.07-.23.51.51 0 00.08-.22c0-.1-.27-.13-.5-.16a1.51 1.51 0 01-.23-.03 1.31 1.31 0 01-.34-.38.98.98 0 00.1.28zm11.22-8.45a11.15 11.15 0 01-2.96 7.2 1.11 1.11 0 01-.24.2.88.88 0 01.24.19l1.16 1.15a.61.61 0 01.2.3 1.03 1.03 0 01.3-.4 13.31 13.31 0 002.5-3.93 13.86 13.86 0 001.03-4.7.7.7 0 01.05-.3.96.96 0 01-.34.06h-1.6a1.06 1.06 0 01-.38-.05.73.73 0 01.04.28zm-25.49 0a13 13 0 002.72 7.63c.23.33.46.6.78.97a.61.61 0 01.2.38 1.05 1.05 0 01.23-.38l1.07-1.02a.86.86 0 01.34-.24 1.5 1.5 0 01-.3-.24.65.65 0 01-.23-.39h-.1a3.54 3.54 0 00-.44-.29 1.15 1.15 0 01-.2-.38 1.94 1.94 0 01-.04-.1c-.1.1-.15.1-.2.1a.88.88 0 01-.67-.73.9.9 0 01-.44-.19 2.28 2.28 0 01-.34-.33 2.27 2.27 0 00-.1-.1h-.05a.21.21 0 01-.14.14c-.17 0-.27-.12-.46-.35l-.08-.09a.4.4 0 01-.17.05c-.06 0-.09-.03-.12-.1l-.34-.86c0-.1.02-.97.54-.97.1 0 .1 0 .19.1a.12.12 0 00.05.01c.1 0 .2-.1.2-.25l.38-.15.24.34.1.1-.06-.2a2.8 2.8 0 01-.13-.53 16.08 16.08 0 01-.24-1.93.62.62 0 01.04-.29.55.55 0 01-.24.05H7a.75.75 0 01-.29-.05.7.7 0 01.05.3zm19.81 5.75l-.08.2a3.27 3.27 0 00-.16.42.26.26 0 00.14.24 1.5 1.5 0 00.38.2l.1.05a.82.82 0 00.12.09c.07.04.13.09.13.15a.66.66 0 01-.1.28 1.21 1.21 0 01-.24.33c-.08.07-.14.14-.14.2s.06.1.11.11a.22.22 0 01.08.04.44.44 0 01-.05.34 6.44 6.44 0 00.97-.82l.07-.07a.47.47 0 01.23-.17c-.3 0-.34-.05-.34-.24l-1.07-1.07a.4.4 0 01-.15-.29zm-9.95-1.93a.98.98 0 01-.2.24l-1.02 1.01a1.01 1.01 0 01-.28.19c.1 0 .2.1.28.2a8.15 8.15 0 003.45 1.83 5.62 5.62 0 001.02.2.66.66 0 00-.34-.15l-.29-.1c-.32-.1-.45-.35-.58-.61a1.96 1.96 0 00-.25-.4c-.02-.1.04-.14.11-.2a.55.55 0 00.23-.39c.04-.27.34-.36.6-.43l.18-.05a1.54 1.54 0 01-.31.04 1.09 1.09 0 01-.28-.04 6.3 6.3 0 01-2.18-1.16.78.78 0 00-.04-.03.21.21 0 01-.1-.16zM28.55 22v.02a1.15 1.15 0 01.3-.44 10.5 10.5 0 002.61-6.47.6.6 0 01.05-.29.37.37 0 00-.11.02.56.56 0 01-.18.03h-1.55a.82.82 0 01-.34-.05 1.08 1.08 0 01.05.39 5.77 5.77 0 01-.15 1.1h.02a.45.45 0 01.13-.04l.01.01c.14.14.23.24.23.38 0 .05-.04.17-.22.17a.6.6 0 01-.17-.03c-.1.1-.1.1-.14.1a5.1 5.1 0 01-.06.15c-.05.14-.12.33-.19.58a8.5 8.5 0 01-1.6 2.6l-.01.02a.8.8 0 01-.23.18 2.2 2.2 0 01.34.29l.54.58.02-.18c.01-.16.02-.21.17-.21.38 0 .43.55.48 1.09zm-14.86-6.6l-.2.08c-.3.12-.33.13-.33.21v.05a1.22 1.22 0 01.1.58 1.78 1.78 0 01.58 1.25l.01.02a2.76 2.76 0 01.24 1.24c0 .12.03.17.2.43l.1.15-.06.38c0 .1 0 .1-.24.3a.4.4 0 000 .33l1.8-1.78a.77.77 0 01.3-.2.74.74 0 01-.3-.18 5.69 5.69 0 01-1.12-2.62l-.2.05-.04-.05a2.4 2.4 0 00-.09.33 1.82 1.82 0 01-.1.4.09.09 0 01-.04 0c-.08 0-.12-.12-.16-.25a.22.22 0 01-.2-.08.1.1 0 010-.1.39.39 0 00.13.02c.11 0 .17-.09.17-.27a.68.68 0 00-.06-.25.52.52 0 01-.04-.18.05.05 0 01.05-.05c.04 0 .08.04.13.09a.38.38 0 00.26.15c.2 0 .32-.16.39-.48l-.1-.05a1.42 1.42 0 01.02-.21 1.66 1.66 0 00.03-.27.48.48 0 00-.44-.54c-.18 0-.44.1-.44.25a2 2 0 00.14.45 1.15 1.15 0 01.06.17c0 .1-.05.2-.15.2h-.34c-.06.1-.06.14-.06.43zm7.87 4.49c.1.24.1.24.15.29a3.48 3.48 0 00.58.1c.06 0 .15-.16.22-.27a.74.74 0 01.07-.12c.5-.12 1.12-.38 1.12-.87 0-.19-.15-.19-.15-.19l-.14.09a1.43 1.43 0 01-.4.2 3.08 3.08 0 01-.33-.1c.05.1.05.1 0 .24-.15.1-.15.1-.25.1-.14-.14-.19-.2-.29-.2l-.05.2a3.2 3.2 0 01-.36-.17 3.05 3.05 0 00-.37-.17 2.1 2.1 0 00-.38.15l-.34.26v.12a1.84 1.84 0 00-.54.3.12.12 0 00.04.08.83.83 0 00.5.1v.03a.38.38 0 00.06 0 .28.28 0 00.13-.03c.1 0 .73-.14.73-.14zm2.09-.24c0 .08.36.17.58.22l.1.02a1.69 1.69 0 01.34.14 2 2 0 00.48.2c.04 0 .88-.05.93-.15l.04-.1c.1-.22.28-.67.4-.67.04 0 .1.25.14.48a8.15 8.15 0 001.65-2.9h-.58a.35.35 0 01-.34.2.82.82 0 01-.3-.07L27 17c-.05.2-.1.34-.24.34s-.2-.16-.2-.24h-.05a1.75 1.75 0 01-.58.67c-.2.04-.23.08-.39.27l-.1.12c-.27.05-.43.1-.43.2s.1.1.14.1a1.81 1.81 0 00.49-.2c.1-.24.1-.24.29-.3a.4.4 0 01.18-.04c.16 0 .26.11.26.29a3.73 3.73 0 01-.25 1.11 1.06 1.06 0 01-.1.27 1.04 1.04 0 00-.1.26l-.15.05a.52.52 0 01-.14.05l-.51-.13a9.35 9.35 0 00-1.29-.3c-.04-.02-.18-.02-.18.13zm-5.3-2.37l-1.02 1.02a.45.45 0 01-.24.15.66.66 0 01.2.14 5.23 5.23 0 002.52 1.11l.03-.14c.04-.27.1-.63.26-.63.34 0 .4 0 .4-.15a.63.63 0 00-.13-.17.65.65 0 01-.12-.16.28.28 0 01.1-.24.55.55 0 01-.05-.3.36.36 0 01.1-.24l-.01.01a.7.7 0 01-.28.09 2.61 2.61 0 01-1.31-.53.5.5 0 01-.25-.3.6.6 0 01-.2.34zm4.38 1.16l.04.05c.05 0 .59-.24.59-.43-.21 0-.59.08-.63.38zm-7.29-2.6c.1.04.2.28.24.48a5.29 5.29 0 00.78 1.44.52.52 0 01.15.25.61.61 0 01.2-.3l.53-.53a3.73 3.73 0 00-.2-.72.67.67 0 000 .26v.08l-.1.04a.72.72 0 00-.2-.17c-.07-.05-.13-.1-.13-.12-.05-.04-.05-.1-.05-.24l-.2-.14a.3.3 0 01-.19.05c-.1-.23-.31-.34-.82-.39zm-5.7-.9a.37.37 0 01.02.12 15.3 15.3 0 00.3 2.18 4.12 4.12 0 00.14.62.4.4 0 01.1-.29.15.15 0 01.08-.02c.03 0 .06-.01.07-.03s0-.02 0-.04c.03-.04.01-.07-.02-.14a1.48 1.48 0 01-.04-.1c.12-.06.1-.14.07-.22a.26.26 0 01-.02-.17 1.09 1.09 0 01.3-.58 1.46 1.46 0 00.53-.24.45.45 0 00.13-.16c.05-.1.1-.18.2-.18.14 0 .2.08.35.31l.05.08-.05-.17a.57.57 0 01-.05-.22 2.46 2.46 0 010-.87.2.2 0 00-.06.02.48.48 0 01-.18.03h-1.7a.36.36 0 01-.24-.05.34.34 0 00.02.12zm13.9 1.96c-.03.02-.05.1-.04.18a.46.46 0 00.39.4c.04.18.1.34.24.34a.2.2 0 00.2-.2c0-.31-.3-.46-.5-.56l-.04-.02a.22.22 0 00-.02-.17.08.08 0 00-.06-.03.43.43 0 00-.16.06zm-6.16.14l.63-.58h-.1l-.05-.04h-.05a2.42 2.42 0 01-.43.62zm2.96-1.83l-.05.1a.33.33 0 01.1.2 2.71 2.71 0 01-.29.38c0 .56-.63.63-1.11.63a2.42 2.42 0 001.49.52c.04 0 .1 0 .15-.02a1.58 1.58 0 01.2-.02c.17 0 .23-.22.3-.5l.04-.13c.05-.18.1-.29.2-.29a2.08 2.08 0 01.29.03 1.7 1.7 0 00.23.03.09.09 0 00.06-.01c.14-.1.2-.47.2-.68 0-.02-.03-.05-.06-.08a.29.29 0 01-.1-.16v-.2c.01-.24.02-.4-.1-.52-.02-.04-.08-.05-.14-.05-.07 0-.15-.01-.15-.1a.42.42 0 01.15-.28.2.2 0 00.05-.15 1.87 1.87 0 00-.03-.22 2 2 0 01-.02-.21.46.46 0 00-.16-.03.25.25 0 01-.13-.02l-.04-.08a.84.84 0 00-.16-.26.18.18 0 01-.19-.2.48.48 0 01-.1.02.6.6 0 01-.23-.06.54.54 0 00-.2-.05c-.1 0-.17-.17-.17-.31a.24.24 0 01.03-.12.1.1 0 01.08-.05 1.32 1.32 0 01.22.02.73.73 0 00.1.01c.05 0 .07-.02.07-.08 0-.1-.22-.18-.41-.19-.33 0-.43.06-.46.1a2.07 2.07 0 01.1.57c0 .2-.7.44-.88.49a1 1 0 01-.1.29.7.7 0 00-.43.38v.15l-.15.52v.25a.25.25 0 01-.2.1c-.03 0-.05-.09-.08-.18-.04-.14-.09-.3-.2-.3h-.05l-.1.1a.7.7 0 01-.29-.1c-.24.24-.3.34-.24.59-.12.03-.24.1-.26.16a.03.03 0 00.01.03.5.5 0 00.14.01c.14 0 .35-.02.52-.04l.26-.02c.1-.1.15-.1.2-.1a.15.15 0 01.15.15.37.37 0 00.19-.1.46.46 0 00.12-.22c.01-.06.03-.1.07-.12a.15.15 0 01.05 0c.05 0 .08.04.11.1a.23.23 0 00.09.1 2.53 2.53 0 00-.33.72l-.01.04a.11.11 0 01-.09.04.54.54 0 01-.16-.04v-.05h-.04c-.04.08-.02.1.07.2l.12.14c.1-.1.1-.1.2-.34.39-.19.39-.19.39-.38 0-.34.05-.34.68-.34.29-.01.43-.01.48.23zm7.38.31v.03l.16.15a1.58 1.58 0 01.47.67 4.73 4.73 0 00.15-1.16 1.32 1.32 0 01.03-.33.26.26 0 00.01-.06.74.74 0 01-.29.05h-.87a.82.82 0 01.34.65zm-15.23-.63a1.03 1.03 0 01.03.27l.02.33.03.59a.58.58 0 01-.03.17.4.4 0 00-.02.12.47.47 0 01.25-.2c.06-.03.1-.05.1-.14a.5.5 0 00-.05-.16.7.7 0 01-.05-.23.44.44 0 01.09-.19.96.96 0 00.1-.2.63.63 0 00.05-.28.79.79 0 00.29-.15h-.01a.37.37 0 00-.1.02.8.8 0 01-.23.03h-.24a.58.58 0 01-.16-.03.4.4 0 00-.09-.02.32.32 0 00.02.07zm16.69-2.34a2.16 2.16 0 01-.07.65l-.03.13a1.24 1.24 0 01.15.86c.04 0 .07-.02.1-.03a.7.7 0 01.24-.06h1.5a.98.98 0 01.34.05 1.02 1.02 0 01-.05-.39 10.22 10.22 0 00-.87-3.48 1.03 1.03 0 01-.3.1c-.05 0-.12-.1-.18-.18-.05-.06-.08-.1-.1-.1-.59-.83-.68-.83-.93-.83a.25.25 0 00-.08-.04.46.46 0 01-.16-.1 2.6 2.6 0 00-.32-.25 1.22 1.22 0 01-.12-.1c-.1-.04-.14-.15-.14-.33l-.68-.24a2.2 2.2 0 01-.14-.6 1.94 1.94 0 00-.06-.32c-.05-.2-.3-.43-.38-.43l-.29.03-.15.02c-.1-.12-.4-.53-.34-.82a1.3 1.3 0 01-.23-.5l-.06-.18a6.81 6.81 0 00-.39-.43 11.19 11.19 0 00-4.23-1.21.71.71 0 01-.34-.05 1.07 1.07 0 01.05.39v1.44a.83.83 0 01-.05.34.6.6 0 01.3-.05 8.28 8.28 0 014.51 1.7 2.7 2.7 0 01-.08-.18.33.33 0 00-.06-.12l.04-.1h-.03c-.12-.05-.16-.06-.2-.24a.1.1 0 00.1-.1l-.23-.36a1.2 1.2 0 01-.07-.12.18.18 0 01.15-.05 5.6 5.6 0 01.52.58l.16.19c.4 0 .43.06.68.92l.06.08c.38.5.42.56.37.74a.96.96 0 01.63.77c0 .1.1.1.15.1a2.15 2.15 0 01.39-.1.15.15 0 01.14.15.84.84 0 01-.1.25.56.56 0 00-.05.14h.3c.05.2.04.24-.1.33 0 .04 0 .11.02.14a.03.03 0 00.02 0l.07.03c.1.03.13.04.18.12v-.02l.05.02a1.82 1.82 0 00.08.24 1.14 1.14 0 01.11.4l-.14.43a.45.45 0 01.04.48.27.27 0 01-.05.12l-.1.17a4.5 4.5 0 00-.28.52 2.87 2.87 0 01-.25.45c-.34.1-.34.1-.34.29 0 .1 0 .1.1.14l-.14.07-.15.08h.58a.77.77 0 01.22.03.33.33 0 00.08.01 1.71 1.71 0 01.06-.66l.03-.16a.78.78 0 00.05-.12.83.83 0 01.05-.12l.06-.13a2.25 2.25 0 01.18-.35c.05-.05.1-.05.2-.05zM13.11 14.1a.76.76 0 01.22.04.33.33 0 00.07 0l-.05-.47a.66.66 0 010-.44.58.58 0 01.25-.24.72.72 0 00.05-.17.69.69 0 01.04-.17 1.9 1.9 0 01.25-.2h.04c.3-.05.43-.08.47-.15.03-.04.01-.11-.03-.23a3.78 3.78 0 01.54-.29 1.7 1.7 0 01.82-.62l.04-.05c.22-.31.3-.44.45-.49a.42.42 0 01-.3-.14l-1.16-1.12a.43.43 0 01-.12-.17l-.03-.07a1 1 0 01-.14.24 8.33 8.33 0 00-1.9 4.4.94.94 0 01-.04.39.64.64 0 01.24-.05zm-1.46 0a.52.52 0 01.25.05.81.81 0 01-.05-.39 8.57 8.57 0 012.13-4.92.41.41 0 01.25-.15.65.65 0 01-.2-.14l-1.16-1.16c-.16-.16-.2-.25-.2-.3a.94.94 0 01-.1.21.92.92 0 00-.05.09 10.72 10.72 0 00-2.76 6.42.95.95 0 01-.05.34.43.43 0 01.24-.05zm-2.86 0a.53.53 0 01.24.05.6.6 0 01-.05-.3 7.72 7.72 0 01.49-2.74 11.52 11.52 0 012.48-4.3l.02-.03a.26.26 0 01.22-.12.7.7 0 01-.26-.2l-.03-.04-1.17-1.16a.41.41 0 01-.14-.29.61.61 0 01-.19.28v.01c-.34.38-.69.77-.93 1.11a13.1 13.1 0 00-2.72 7.44.9.9 0 01-.05.34.83.83 0 01.34-.05zm25.34 0a1.1 1.1 0 01.4.05.89.89 0 01-.1-.39 13.17 13.17 0 00-3.65-8.54.6.6 0 01-.19-.3c0 .1-.1.2-.2.3l-1.11 1.1a.43.43 0 01-.24.15.87.87 0 01.24.2 11.93 11.93 0 012.96 7.1 1.38 1.38 0 01-.05.38 1.39 1.39 0 01.4-.05zm-6.3-2.03a1.08 1.08 0 00.34.27l.04.02c0 .15 0 .15-.2.29a1.3 1.3 0 01-.1.29 1.31 1.31 0 00-.1.29l.06.05h.04c.36 0 .59-.63.59-.63a6.45 6.45 0 00-.34-1.06 3.57 3.57 0 00-.31-.24 2.02 2.02 0 01-.52-.44 1.42 1.42 0 00.15-.48 6.5 6.5 0 00-.87-1.16 1.1 1.1 0 01-.15-.24c0 .1-.1.2-.2.28l-1.98 1.99.24.24.2-.48c0-.1.2-.15.24-.15a1.6 1.6 0 01.29.05 1.64 1.64 0 00.29.05.62.62 0 01.26-.04 1.75 1.75 0 01.8.19l.4.62a.37.37 0 01-.05.2.99.99 0 01.04.09.25.25 0 00.06.1l.07-.06a.64.64 0 01.41-.18c.2 0 .3.09.3.14zm-5.59-.02c.1.09.2.17.24.17a.29.29 0 00.19-.07.12.12 0 01.06-.03v-.03a.45.45 0 01.29-.4 2.37 2.37 0 01.33-.22 2.41 2.41 0 00.35-.22l.29-.29h-.01c-.24 0-.28-.06-.28-.1a.16.16 0 01.1-.16.2.2 0 00.04-.03.26.26 0 01.1-.06.8.8 0 00.1-.04.36.36 0 01-.24-.1 4.58 4.58 0 00-2.57-1.06.31.31 0 01-.17-.06 1.92 1.92 0 00-.07-.04.86.86 0 01.04.3v1.5h.02a2.3 2.3 0 01.57.04l.06-.06a1.72 1.72 0 01.52-.42l.15-.15c.13 0 .19.08.19.25a1.1 1.1 0 01-.39.77l-.1.04c-.18.08-.52.23-.54.31a.03.03 0 000 .03.09.09 0 00.05.01.28.28 0 00.12-.04.5.5 0 01.23-.06c.07 0 .2.12.33.22zm-3.84-.46h.24l.15.1a1.36 1.36 0 01.14-.08c.16-.08.36-.18.4-.36v-.03c.04-.3.05-.36.28-.5a.32.32 0 00.08.21.1.1 0 00.07.04.6.6 0 00.1-.02.96.96 0 01.2-.03.32.32 0 01.12.03.17.17 0 00.07.02.3.3 0 01-.05-.2V9.61a.86.86 0 01.05-.3l-.08.05a.31.31 0 01-.17.06 6.07 6.07 0 00-2.76 1.25l-.24.2.14-.05a1.98 1.98 0 01.6.34l.14.1v.1l-.15.04v.05c.15.14.15.14.24.14 0-.04.05-.2.15-.2 0 0 .04.01.28.2zm1.5-4.93a7.8 7.8 0 00-4.46 1.84 1.05 1.05 0 01-.29.2.54.54 0 01.24.14L16.56 10a.7.7 0 01.14.19.84.84 0 01.2-.24 6 6 0 013.06-1.3.52.52 0 01.29.05.4.4 0 00-.02-.09.58.58 0 01-.03-.15V6.9a.62.62 0 01.05-.29.96.96 0 01-.34.05zm4.38 3.19a.76.76 0 01.19.29 1.52 1.52 0 01.24-.29l1.02-1.01a1.04 1.04 0 01.24-.2 1.47 1.47 0 01-.29-.19 8.16 8.16 0 00-4.37-1.78 1.08 1.08 0 01-.27-.04.32.32 0 00-.07-.01.83.83 0 01.05.34v1.4a.83.83 0 01-.05.34.61.61 0 01.3-.05 6.15 6.15 0 013 1.2zM20 3.77a11.12 11.12 0 00-6.66 2.8.28.28 0 01-.24.1.23.23 0 01.15.07.47.47 0 00.1.07l1.2 1.2a.54.54 0 01.15.25.74.74 0 01.2-.29 8.88 8.88 0 015.1-2.13.52.52 0 01.25.05.44.44 0 01-.05-.24v-1.7a.44.44 0 01.05-.23.52.52 0 01-.25.05zm0-3a14.98 14.98 0 00-4.76 1.13 13.89 13.89 0 00-3.98 2.54h-.01a.41.41 0 01-.24.15.83.83 0 01.24.18l1.17 1.17a.75.75 0 01.2.29.72.72 0 01.18-.29A12.57 12.57 0 0120.02 3a.65.65 0 01.24.05.73.73 0 01-.05-.29V.97a.54.54 0 01.05-.25.64.64 0 01-.24.05zm7.33 3.48c.11 0 .23.15.37.32a1.34 1.34 0 00.5.45.46.46 0 01.11.26c.04.14.09.31.23.37.07 0 .1.05.18.13l.1.11v-.05a.42.42 0 01.15-.24l.87-.87a.62.62 0 01.34-.2.84.84 0 01-.34-.23 13.2 13.2 0 00-1-.76l-.02-.01A14.04 14.04 0 0021.32.77a.8.8 0 01-.34-.05.73.73 0 01.04.34v1.55a.73.73 0 01-.04.29v-.02c.12-.1.2-.19.26-.19a.04.04 0 01.03.01.15.15 0 01.07.1c.02.09-.05.2-.12.3a.16.16 0 00.05-.02.5.5 0 01.19-.03 11.28 11.28 0 014.52 1.25 3.19 3.19 0 00.31-.07 1.54 1.54 0 01.42-.08 1.3 1.3 0 01.2.05 1.95 1.95 0 00.37.06.13.13 0 00.06 0zm5.97 20.08a11.98 11.98 0 012.04-3.42l.05.05a29.53 29.53 0 00-.88 3.86A5.25 5.25 0 0132.48 28l.05.05c.44-.15 1.7-1.3 2.92-1.88 2.47-1.21 3.74-1.94 4.41-3.53l.05.05a7.8 7.8 0 01-6.07 5.74l-3.05.68c1.01-.91 1.31-1.78 2.52-4.78zM9.47 28.87l-2.04-.43a7.87 7.87 0 01-6.07-5.75l.05-.05c.73 1.6 1.99 2.32 4.47 3.53 1.21.58 2.47 1.74 2.91 1.88l.05-.05a5.11 5.11 0 01-2-2.95c-.29-1.44-.72-3.47-.92-4.1l.05-.04a13.3 13.3 0 012.04 3.42 22.77 22.77 0 001.46 3.43 5.03 5.03 0 001.07 1.35zm26.36-7.67a12.2 12.2 0 01.88-4.34h.05c0 2.17.48 2.94.48 4.3a7.56 7.56 0 01-.87 2.75l.05.05c2.18-3.53 4.37-4.06 4.76-6.76a5.32 5.32 0 01.1.91 7.36 7.36 0 01-2.87 5.36l-3.64 2.37c.73-1.27.77-2.23 1.06-4.64zM2.91 23.47A7.25 7.25 0 010 18.1a5.3 5.3 0 01.1-.92c.39 2.7 2.57 3.23 4.8 6.76l.06-.05a7.67 7.67 0 01-.93-2.75c0-1.35.54-2.13.54-4.3h.05a14.86 14.86 0 01.87 4.35c.24 2.41.34 3.38 1.02 4.63zm34.92-2.37c.04-.53.1-1.06.1-1.45 0-1.06-1.66-5.16-1.51-7.43h.05c.39 1.64 2.23 3.13 2.23 5.5 0 .38-.2 1.3-.2 1.4h.06c.53-2.8 2.13-5.22 2.13-6.43 0-.62-.04-.91-.04-1.5h.04a13.02 13.02 0 01.54 2.8c0 3.82-1.75 4.45-3.35 7.1zm-34.43 0C1.8 18.44.05 17.82.05 14a10.5 10.5 0 01.58-2.8h.05c0 .58-.05.87-.05 1.5 0 1.2 1.56 3.62 2.14 6.42h.05a13.18 13.18 0 01-.25-1.4c0-2.36 1.85-3.86 2.24-5.5h.05c.19 2.26-1.46 6.37-1.46 7.43 0 .39 0 .92.05 1.45zm35.5-5.17c-.15-1.15-.39-1.54-2.58-4.58a9.12 9.12 0 01-1.2-3.1h.04c.34.63.49.83 1.94 2.08a5.05 5.05 0 011.75 3.19h.05a12.85 12.85 0 01-.15-1.7c0-.96.25-2.16.25-4.2a6.1 6.1 0 00-.54-1.73h.04a7.42 7.42 0 011.75 4.68c0 1.7-.87 3.29-1.31 5.36zm-36.52 0c-.43-2.07-1.3-3.66-1.3-5.36A7.16 7.16 0 012.81 5.9h.04a4.88 4.88 0 00-.53 1.74c0 2.03.2 3.23.2 4.2a14.64 14.64 0 01-.1 1.69h.04a4.83 4.83 0 011.75-3.19c1.41-1.25 1.6-1.45 1.9-2.07h.04A9.88 9.88 0 015 11.35c-2.19 3.04-2.48 3.42-2.57 4.58zm.64-8.4a4.29 4.29 0 012.95-4.25v.05c-1.55 1.2-1.11 2.42-2.33 5.7v.05c1.31-2.6 3.4-2.46 4.27-4.54h.05c-.73 2.32-.82 2.51-1.84 3.38-1.4 1.2-2.48 1.88-3.1 3zm32.24.39c-.97-.87-1.12-1.06-1.85-3.38h.05c.88 2.08 2.96 1.93 4.27 4.54v-.05c-1.2-3.28-.77-4.5-2.28-5.7v-.05a4.25 4.25 0 012.91 4.25v3.38c-.63-1.11-1.7-1.79-3.1-3zm-3.94-6.57l.05-.05c1.16 1.02 3.78.44 5.05 5.36-2.58-1.64-3.4-3.9-5.1-5.3zM9.95 1.3l.05.05c-1.7 1.4-2.52 3.67-5.1 5.31C6.17 1.74 8.79 2.32 9.95 1.3zm17.58 2.8c-.2-.14-.39-.2-.39-.29s.1-.1.15-.1a.38.38 0 01.14.05.39.39 0 01.44.1.35.35 0 01.1.29c0 .1.05.05.05.14s-.1.1-.15.1c-.14 0-.2-.14-.34-.29zm-5.39-1.3a.87.87 0 01-.73-.34c.05-.14.1-.14.3-.1.14-.05 1.06-.38 1.16-.38a1.34 1.34 0 011.07.38c-.05.1-.2.34-.44.34a5.12 5.12 0 00-1.26.1z"/>
</svg>
